<?xml version="1.0" standalone="no"?>
<!DOCTYPE svg PUBLIC "-//W3C//DTD SVG 20010904//EN"
 "http://www.w3.org/TR/2001/REC-SVG-20010904/DTD/svg10.dtd">
<svg version="1.0" xmlns="http://www.w3.org/2000/svg"
 width="48.000000pt" height="48.000000pt" viewBox="0 0 48.000000 48.000000"
 preserveAspectRatio="xMidYMid meet">

<g transform="translate(0.000000,48.000000) scale(0.100000,-0.100000)"
fill="#000000" stroke="none">
<path d="M64 405 c-10 -24 4 -96 30 -150 48 -104 166 -186 270 -189 l51 -1 0
50 0 50 -49 8 c-45 7 -51 6 -75 -17 l-27 -26 -37 26 c-21 14 -51 44 -68 66
l-29 42 25 26 c24 25 25 31 18 76 l-8 49 -48 3 c-36 2 -49 -1 -53 -13z"/>
</g>
</svg>
